<svg id="svg" xmlns="http://www.w3.org/2000/svg" xmlns:xlink="http://www.w3.org/1999/xlink" width="400" height="400" viewBox="0, 0, 400,400"><g id="svgg"><path id="path0" d="M111.200 45.661 C 19.328 77.743,24.000 75.771,24.000 82.462 C 24.000 88.947,50.312 302.281,51.309 303.877 C 53.401 307.227,195.587 384.002,199.684 383.994 C 203.491 383.986,345.577 306.606,348.176 303.126 C 349.672 301.122,376.000 91.381,376.000 81.465 C 376.000 78.676,375.529 77.166,374.200 75.686 C 371.733 72.941,204.125 15.948,198.948 16.095 C 196.794 16.155,165.509 26.697,111.200 45.661 M251.569 168.200 C 279.618 228.590,302.748 278.450,302.969 279.000 C 303.283 279.781,299.620 280.000,286.209 280.000 L 269.047 280.000 257.923 256.001 L 246.800 232.002 199.998 232.001 L 153.197 232.000 142.093 256.000 L 130.989 280.000 113.828 280.000 C 104.024 280.000,96.781 279.692,96.933 279.282 C 98.532 274.974,199.602 58.400,200.013 58.400 C 200.320 58.400,223.521 107.810,251.569 168.200 M183.865 165.800 L 168.305 199.600 184.153 199.817 C 192.869 199.936,207.143 199.936,215.874 199.817 L 231.749 199.600 216.153 165.800 C 207.576 147.210,200.303 132.000,199.992 132.000 C 199.680 132.000,192.423 147.210,183.865 165.800 " stroke="none" fill="#000000" fill-rule="evenodd"></path></g></svg>