<svg id="svg" xmlns="http://www.w3.org/2000/svg" xmlns:xlink="http://www.w3.org/1999/xlink" width="400" height="400" viewBox="0, 0, 400,400"><g id="svgg"><path id="path0" d="M135.668 84.018 C 93.528 91.921,59.375 130.987,59.375 171.287 L 59.375 177.095 54.883 178.084 C -17.304 193.977,-18.108 296.993,53.811 315.320 L 61.138 317.187 200.000 317.187 L 338.862 317.187 346.189 315.320 C 389.899 304.182,412.658 256.669,393.382 216.797 C 383.877 197.134,365.294 182.286,344.922 178.074 L 340.234 177.105 338.510 170.094 C 328.164 128.034,279.010 105.436,239.645 124.642 C 236.313 126.267,233.467 127.453,233.321 127.275 C 233.174 127.098,231.528 124.668,229.662 121.875 C 210.691 93.476,170.833 77.423,135.668 84.018 " stroke="none" fill="#000000" fill-rule="evenodd"></path></g></svg>