<svg id="svg" xmlns="http://www.w3.org/2000/svg" xmlns:xlink="http://www.w3.org/1999/xlink" width="400" height="400" viewBox="0, 0, 400,400"><g id="svgg"><path id="path0" d="M176.172 21.533 C 88.789 33.386,20.313 109.551,20.312 194.892 L 20.312 203.767 22.716 205.790 L 25.120 207.812 61.633 207.813 L 98.145 207.813 100.287 205.577 C 102.274 203.503,102.480 202.655,103.153 193.796 C 108.938 117.572,195.178 76.970,257.643 121.061 C 325.601 169.029,299.798 281.212,217.578 295.252 C 214.570 295.765,211.318 296.347,210.352 296.545 L 208.594 296.905 208.594 267.710 C 208.594 236.929,208.364 234.647,205.047 232.473 C 202.778 230.986,132.371 230.595,129.644 232.054 C 125.936 234.039,125.781 235.457,125.781 267.539 L 125.781 297.656 108.644 297.656 L 91.507 297.656 91.261 278.450 L 91.016 259.244 88.464 256.966 L 85.913 254.687 62.058 254.688 C 29.084 254.688,32.031 251.726,32.031 284.862 L 32.031 308.714 34.315 310.998 L 36.599 313.281 55.799 313.281 L 75.000 313.281 75.000 336.545 C 75.000 367.988,71.300 364.985,109.672 364.677 L 137.630 364.453 139.909 361.902 L 142.188 359.350 142.188 336.316 L 142.188 313.281 167.188 313.281 L 192.188 313.281 192.188 344.425 L 192.188 375.568 194.336 377.726 L 196.484 379.885 208.984 379.451 C 320.185 375.588,399.833 269.827,375.308 158.594 C 355.383 68.223,269.211 8.913,176.172 21.533 " stroke="none" fill="#000000" fill-rule="evenodd"></path></g></svg>