<svg id="svg" xmlns="http://www.w3.org/2000/svg" xmlns:xlink="http://www.w3.org/1999/xlink" width="400" height="400" viewBox="0, 0, 400,400"><g id="svgg"><path id="path0" d="M183.333 92.582 L 183.333 135.164 178.510 134.135 C 170.190 132.361,138.368 133.777,128.125 136.378 C 88.150 146.527,68.561 175.218,70.106 221.354 C 72.029 278.781,103.570 301.464,179.008 299.673 C 203.377 299.094,211.010 298.465,226.602 295.750 L 233.333 294.578 233.333 172.289 L 233.333 50.000 208.333 50.000 L 183.333 50.000 183.333 92.582 M266.667 75.000 L 266.667 100.000 291.667 100.000 L 316.667 100.000 316.667 75.000 L 316.667 50.000 291.667 50.000 L 266.667 50.000 266.667 75.000 M266.415 210.156 C 266.000 295.402,266.293 291.643,258.851 306.891 C 252.591 319.715,237.588 333.958,222.644 341.262 C 214.734 345.129,213.932 344.434,240.003 356.299 C 266.249 368.243,264.456 367.923,274.841 362.518 C 293.727 352.688,306.217 335.580,313.263 309.887 L 316.118 299.479 316.428 216.406 L 316.738 133.333 291.763 133.333 L 266.789 133.333 266.415 210.156 M175.478 177.210 L 183.333 178.378 183.333 217.220 L 183.333 256.062 175.796 257.333 C 142.009 263.032,122.641 246.585,124.242 213.555 C 125.635 184.803,143.122 172.398,175.478 177.210 " stroke="none" fill="#000000" fill-rule="evenodd"></path></g></svg>