<svg id="svg" xmlns="http://www.w3.org/2000/svg" xmlns:xlink="http://www.w3.org/1999/xlink" width="400" height="400" viewBox="0, 0, 400,400"><g id="svgg"><path id="path0" d="M89.022 101.642 C 53.195 109.198,25.025 138.624,17.959 175.872 C 16.128 185.523,16.127 226.685,17.957 237.179 C 29.154 301.389,94.901 335.631,151.002 306.471 C 172.267 295.418,191.145 272.826,196.275 252.292 L 196.847 250.000 190.425 250.000 C 181.142 250.000,179.221 251.156,174.130 259.807 C 157.743 287.648,131.054 301.977,101.038 299.048 C 63.106 295.347,36.579 266.059,33.783 224.792 L 33.233 216.667 116.616 216.667 L 200.000 216.667 200.000 198.842 C 200.000 174.771,198.110 165.262,190.209 149.583 C 171.827 113.107,129.576 93.089,89.022 101.642 M201.351 109.375 C 201.690 109.948,218.402 132.048,238.488 158.486 C 258.575 184.925,275.212 207.082,275.458 207.724 C 275.725 208.420,260.062 229.747,236.707 260.488 C 215.148 288.865,197.506 312.365,197.504 312.708 C 197.497 313.874,211.361 313.367,215.046 312.067 C 221.284 309.866,223.080 307.779,255.417 265.143 C 272.833 242.180,287.271 223.392,287.500 223.393 C 287.729 223.393,302.294 242.334,319.867 265.484 C 352.043 307.873,353.909 310.012,360.749 312.361 C 364.818 313.758,377.809 313.673,377.264 312.254 C 377.036 311.660,359.371 288.184,338.008 260.085 C 316.645 231.986,299.167 208.697,299.167 208.333 C 299.167 207.968,316.079 185.413,336.749 158.210 L 374.332 108.750 366.243 108.510 C 351.857 108.084,354.033 106.030,316.667 155.337 C 300.854 176.203,287.729 193.275,287.500 193.275 C 287.271 193.275,274.146 176.203,258.333 155.337 C 227.114 114.140,225.505 112.227,220.139 109.899 C 215.731 107.988,200.275 107.556,201.351 109.375 M126.395 119.448 C 159.321 127.883,180.556 154.784,182.912 191.042 L 183.494 200.000 108.429 200.000 L 33.365 200.000 33.738 196.458 C 33.943 194.510,34.305 190.292,34.542 187.083 C 37.972 140.654,82.160 108.116,126.395 119.448 " stroke="none" fill="#000000" fill-rule="evenodd"></path></g></svg>