<svg id="svg" xmlns="http://www.w3.org/2000/svg" xmlns:xlink="http://www.w3.org/1999/xlink" width="400" height="400" viewBox="0, 0, 400,400"><g id="svgg"><path id="path0" d="M173.333 33.907 C 156.440 35.180,134.622 38.329,116.250 42.147 C 58.721 54.100,51.709 64.097,50.254 136.250 C 49.164 190.304,59.989 233.178,84.532 272.014 C 104.357 303.383,132.952 330.873,166.250 350.572 C 183.319 360.670,197.368 367.023,201.250 366.398 C 209.371 365.091,248.808 342.769,258.108 334.215 C 258.919 333.469,260.405 332.289,261.409 331.594 C 265.619 328.677,273.538 321.513,282.948 312.109 C 336.906 258.181,358.168 188.561,347.617 100.359 C 342.853 60.536,329.215 50.101,267.663 39.184 C 239.081 34.114,199.767 31.915,173.333 33.907 M222.917 59.201 C 264.902 62.300,308.629 72.338,315.820 80.529 C 327.034 93.301,328.446 160.677,318.333 200.457 C 303.389 259.247,263.042 308.536,207.757 335.543 L 200.097 339.285 191.090 334.674 C 115.896 296.181,75.535 228.649,75.490 141.250 C 75.459 82.929,77.706 77.656,105.436 70.968 C 149.613 60.314,187.109 56.558,222.917 59.201 M192.671 90.338 C 139.133 146.105,135.743 220.114,184.518 268.315 L 191.667 275.380 191.667 287.690 L 191.667 300.000 200.000 300.000 L 208.333 300.000 208.333 287.787 L 208.333 275.574 216.142 267.527 C 230.611 252.616,240.289 237.267,245.320 221.250 C 258.243 180.109,243.205 128.558,207.076 90.154 C 199.320 81.909,200.782 81.890,192.671 90.338 " stroke="none" fill="#000000" fill-rule="evenodd"></path></g></svg>