<svg id="svg" xmlns="http://www.w3.org/2000/svg" xmlns:xlink="http://www.w3.org/1999/xlink" width="400" height="400" viewBox="0, 0, 400,400"><g id="svgg"><path id="path0" d="M12.511 1.530 C 3.641 4.592,-0.395 12.203,0.131 24.873 C 0.522 34.301,2.948 38.765,21.727 64.615 C 29.452 75.248,32.441 81.637,34.677 92.301 C 38.781 111.873,49.135 136.976,59.732 153.054 C 64.696 160.584,64.558 160.028,62.476 164.110 C 42.166 203.920,46.222 263.882,70.573 283.836 C 89.009 298.943,106.051 293.078,112.146 269.531 C 112.869 266.738,113.614 263.938,113.802 263.309 C 113.990 262.675,115.910 265.464,118.105 269.559 C 133.574 298.417,164.678 333.594,174.726 333.594 C 184.232 333.594,186.805 324.405,179.204 317.601 C 150.530 291.937,132.274 264.791,118.766 227.734 C 114.813 216.890,110.041 213.862,103.341 217.947 C 100.292 219.806,100.198 220.224,99.709 234.005 C 98.802 259.548,92.897 276.651,86.186 273.173 C 64.247 261.802,60.442 210.879,78.597 171.616 C 84.340 159.196,84.613 157.165,81.195 152.266 C 64.347 128.114,55.192 107.766,50.827 84.766 C 48.474 72.370,46.616 68.990,28.278 43.750 C 19.043 31.040,15.118 21.132,18.125 18.125 C 21.864 14.386,43.882 23.021,62.621 35.575 L 71.484 41.513 81.250 42.962 C 166.575 55.627,221.779 105.912,269.515 214.453 C 285.108 249.906,283.722 247.858,295.206 252.416 C 310.607 258.528,328.888 268.162,342.578 277.381 C 354.740 285.571,375.538 302.950,374.407 303.978 C 373.595 304.716,344.601 312.041,331.559 314.803 C 316.069 318.083,314.036 320.744,318.218 332.264 C 323.175 345.921,335.748 358.509,364.453 378.558 C 367.461 380.658,373.680 386.045,378.274 390.528 C 388.264 400.278,387.821 399.973,392.052 399.988 C 397.121 400.006,400.000 396.877,400.000 391.351 L 400.000 387.268 390.430 377.802 C 383.503 370.951,377.925 366.343,370.236 361.121 C 357.144 352.229,349.228 345.538,342.573 337.739 L 337.465 331.752 355.256 327.297 C 396.932 316.860,400.000 315.553,400.000 308.235 C 400.000 294.736,345.051 253.500,306.250 237.881 C 296.820 234.085,298.486 236.365,288.271 213.281 C 235.819 94.756,178.064 40.684,88.691 26.429 C 78.643 24.826,78.418 24.745,70.703 19.936 C 40.809 1.303,26.386 -3.259,12.511 1.530 M80.469 58.318 C 71.753 61.815,73.524 73.898,82.959 75.313 C 87.389 75.977,90.405 78.734,91.046 82.705 C 93.305 96.682,109.526 94.883,108.394 80.780 C 107.314 67.324,90.910 54.129,80.469 58.318 " stroke="none" fill="#000000" fill-rule="evenodd"></path></g></svg>