<svg id="svg" xmlns="http://www.w3.org/2000/svg" xmlns:xlink="http://www.w3.org/1999/xlink" width="400" height="400" viewBox="0, 0, 400,400"><g id="svgg"><path id="path0" d="M194.531 33.875 C 188.435 36.092,59.758 111.040,57.228 113.848 C 53.063 118.470,53.134 116.968,53.129 200.079 C 53.125 281.826,53.080 280.743,56.662 285.577 C 58.763 288.413,98.658 314.563,103.358 316.185 C 116.723 320.799,149.184 310.249,158.712 298.195 C 167.541 287.026,167.259 289.965,167.009 211.524 L 166.797 144.922 164.628 141.232 C 158.215 130.322,141.785 130.322,135.372 141.232 L 133.203 144.922 132.991 210.693 L 132.778 276.464 128.675 278.472 C 126.419 279.576,122.058 281.003,118.985 281.644 L 113.397 282.809 100.469 274.412 L 87.541 266.016 87.521 200.389 L 87.500 134.763 142.240 103.124 C 172.347 85.722,197.775 71.174,198.748 70.794 C 200.247 70.209,209.055 75.034,256.508 102.435 L 312.499 134.766 312.499 200.004 L 312.500 265.242 257.764 296.879 C 227.660 314.279,202.235 328.825,201.264 329.203 C 199.810 329.769,197.415 328.688,187.664 323.064 C 171.688 313.851,169.004 312.987,162.439 314.954 C 150.710 318.469,146.663 335.327,155.581 343.526 C 159.503 347.132,193.939 366.339,197.417 366.860 C 203.361 367.752,205.766 366.506,273.610 327.391 C 342.497 287.676,344.166 286.597,345.964 280.593 C 347.148 276.641,347.266 123.705,346.088 119.465 C 344.454 113.581,342.608 112.386,274.219 72.938 C 198.341 29.170,202.229 31.076,194.531 33.875 M229.614 133.620 C 199.701 137.117,181.221 155.596,183.099 180.133 C 184.825 202.689,198.991 214.756,234.805 224.177 C 267.696 232.829,275.931 242.543,255.033 248.037 C 237.436 252.663,218.998 247.805,216.523 237.891 C 211.643 218.338,182.813 221.957,182.813 242.122 C 182.813 269.276,216.127 288.104,254.855 282.837 C 291.333 277.875,309.477 250.767,295.373 222.301 C 287.351 206.109,276.846 199.950,240.836 190.322 C 208.027 181.551,208.864 167.490,242.188 167.623 C 258.539 167.689,265.131 170.449,266.485 177.795 C 270.565 199.933,300.932 195.190,299.851 172.583 C 298.584 146.067,268.046 129.127,229.614 133.620 " stroke="none" fill="#000000" fill-rule="evenodd"></path></g></svg>