<svg id="svg" xmlns="http://www.w3.org/2000/svg" xmlns:xlink="http://www.w3.org/1999/xlink" width="400" height="400" viewBox="0, 0, 400,400"><g id="svgg"><path id="path0" d="M268.000 17.338 C 261.633 18.358,249.601 21.083,249.604 21.504 C 249.606 21.777,253.000 23.726,257.147 25.836 C 279.473 37.196,292.696 50.022,312.576 79.600 C 325.519 98.857,328.297 114.185,324.249 144.000 C 323.503 149.500,322.922 156.880,322.959 160.400 C 322.997 163.920,323.142 175.620,323.283 186.400 C 323.564 207.854,322.817 213.029,317.824 224.221 C 315.798 228.762,316.008 232.800,318.270 232.800 C 322.426 232.800,342.362 190.086,351.875 160.800 C 371.910 99.124,371.892 67.050,351.812 45.912 C 333.334 26.459,294.251 13.135,268.000 17.338 M92.400 21.146 C 56.643 28.266,36.214 54.112,33.867 95.200 C 31.757 132.117,59.046 238.495,77.729 266.190 C 97.713 295.812,111.209 294.079,140.600 258.117 C 150.970 245.430,150.515 246.530,146.367 244.161 C 128.549 233.985,116.093 209.862,116.749 186.800 C 117.060 175.867,117.046 164.298,116.690 138.000 C 116.070 92.160,128.032 56.964,151.517 35.529 C 158.165 29.461,158.491 30.022,146.000 26.026 C 129.677 20.804,105.274 18.582,92.400 21.146 M191.831 28.744 C 158.501 37.735,137.724 67.747,132.948 113.800 C 132.214 120.879,132.319 120.967,137.154 117.277 C 149.408 107.923,171.616 103.692,182.614 108.615 C 197.033 115.070,206.656 140.020,205.364 167.600 C 204.627 183.343,202.003 193.892,194.122 212.800 C 189.537 223.799,187.863 239.200,191.253 239.200 C 201.018 239.200,202.282 244.926,203.616 295.200 C 204.732 337.267,204.933 339.534,208.550 350.687 C 215.914 373.394,235.905 380.041,260.552 367.977 C 278.228 359.325,283.948 347.951,286.382 316.619 C 286.835 310.778,287.577 302.760,288.030 298.800 C 288.482 294.840,289.765 283.140,290.880 272.800 C 293.052 252.657,294.614 246.177,299.159 238.469 C 302.198 233.316,302.199 233.338,298.782 232.102 C 293.181 230.077,283.079 214.427,281.159 204.800 C 280.852 203.260,277.907 195.880,274.614 188.400 C 260.389 156.089,257.060 142.535,259.941 128.675 C 263.270 112.669,285.385 101.767,306.200 105.870 C 313.518 107.313,308.143 96.001,289.343 70.400 C 266.189 38.868,222.883 20.368,191.831 28.744 M285.777 121.976 C 269.875 126.941,270.326 139.424,287.879 180.193 C 291.429 188.439,294.884 197.038,295.556 199.301 C 296.857 203.682,302.529 214.797,304.486 216.800 C 306.048 218.399,306.858 217.121,308.035 211.200 C 308.516 208.780,309.269 205.420,309.707 203.733 C 311.637 196.309,310.963 164.567,308.717 157.152 C 308.205 155.458,308.358 152.688,309.215 148.169 C 311.672 135.221,311.934 125.594,309.867 124.240 C 304.804 120.922,292.773 119.791,285.777 121.976 M157.837 125.938 C 149.890 128.512,145.624 131.196,138.188 138.300 L 131.805 144.399 132.361 155.631 C 132.742 163.330,132.584 169.497,131.859 175.232 C 127.832 207.059,140.358 229.947,166.104 237.806 C 173.185 239.967,173.261 239.898,173.868 230.673 C 174.499 221.095,176.531 213.481,181.174 203.307 C 191.517 180.644,192.273 151.378,182.996 132.800 C 178.419 123.632,171.111 121.639,157.837 125.938 M292.600 129.304 C 296.015 130.220,294.313 134.884,289.440 137.966 C 286.530 139.806,281.993 138.281,280.229 134.869 C 278.767 132.042,279.960 130.739,284.739 129.945 C 286.313 129.683,287.960 129.347,288.400 129.198 C 289.679 128.764,290.678 128.789,292.600 129.304 M176.501 137.534 C 181.693 139.892,181.805 142.612,176.816 145.192 C 169.887 148.775,158.975 141.450,164.978 137.245 C 167.365 135.573,172.464 135.701,176.501 137.534 M312.946 243.400 C 307.799 250.907,303.089 264.955,305.057 266.924 C 305.330 267.197,308.894 267.585,312.977 267.786 C 328.021 268.527,339.999 264.017,350.422 253.687 C 361.025 243.179,360.207 240.455,346.800 241.630 C 324.677 243.568,321.178 243.578,318.562 241.715 C 315.453 239.502,315.661 239.439,312.946 243.400 M173.950 258.511 C 170.628 262.061,158.796 267.432,148.024 270.279 C 136.618 273.294,134.796 275.019,138.950 278.869 C 148.056 287.308,170.319 290.003,182.724 284.167 L 188.247 281.568 187.750 269.448 C 187.187 255.733,187.342 256.030,180.750 256.012 C 176.786 256.001,176.043 256.274,173.950 258.511 " stroke="none" fill="#000000" fill-rule="evenodd"></path></g></svg>