<svg id="svg" xmlns="http://www.w3.org/2000/svg" xmlns:xlink="http://www.w3.org/1999/xlink" width="400" height="400" viewBox="0, 0, 400,400"><g id="svgg"><path id="path0" d="M188.203 1.131 C 165.981 7.260,145.666 31.171,132.080 67.188 C 130.158 72.283,128.601 75.324,127.970 75.216 C 27.725 57.978,-9.930 114.161,51.156 189.824 C 57.788 198.038,57.592 197.399,54.474 200.656 C 49.811 205.530,40.218 218.299,35.492 225.924 C -6.107 293.047,32.662 338.837,118.750 324.261 C 129.227 322.487,128.024 321.798,131.633 331.641 C 165.100 422.930,234.900 422.930,268.367 331.641 C 271.976 321.798,270.773 322.487,281.250 324.261 C 379.435 340.886,413.710 276.499,346.480 201.723 C 344.234 199.225,343.080 197.327,343.447 196.734 C 343.772 196.208,346.201 193.098,348.844 189.824 C 409.930 114.161,372.275 57.978,272.030 75.216 C 271.399 75.324,269.846 72.286,267.927 67.188 C 249.529 18.296,218.671 -7.272,188.203 1.131 M210.189 26.702 C 222.349 32.779,235.072 50.324,244.473 73.983 C 246.977 80.284,247.071 82.031,244.908 82.031 C 243.104 82.031,220.601 89.772,210.547 93.851 C 199.162 98.470,200.855 98.477,189.226 93.755 C 179.062 89.627,156.949 82.031,155.097 82.031 C 152.929 82.031,153.022 80.288,155.527 73.983 C 170.881 35.343,191.607 17.416,210.189 26.702 M111.842 97.340 C 123.481 98.844,122.363 97.392,120.000 107.933 C 118.335 115.359,116.914 123.620,113.605 145.101 C 113.275 147.243,111.790 148.711,103.763 154.829 C 98.563 158.792,89.800 166.009,84.289 170.867 L 74.270 179.700 68.449 172.152 C 27.561 119.124,45.193 88.725,111.842 97.340 M327.006 97.576 C 360.718 104.534,362.406 132.136,331.564 172.134 L 325.757 179.665 315.727 170.852 C 310.211 166.005,301.442 158.795,296.240 154.831 C 288.213 148.713,286.725 147.242,286.393 145.101 C 282.863 122.262,281.680 115.371,280.053 108.171 C 278.993 103.478,278.125 99.425,278.125 99.164 C 278.125 98.903,281.729 98.246,286.133 97.703 C 290.537 97.160,294.492 96.604,294.922 96.467 C 297.988 95.487,320.689 96.273,327.006 97.576 M158.226 108.357 C 170.909 112.473,170.772 112.367,166.211 114.584 C 164.385 115.471,158.005 119.057,152.034 122.552 C 139.442 129.921,140.367 129.602,140.991 126.367 C 143.221 114.806,145.670 104.688,146.237 104.688 C 146.613 104.688,152.009 106.339,158.226 108.357 M256.484 114.258 C 259.259 127.307,259.552 128.906,259.161 128.906 C 258.975 128.906,253.938 126.047,247.966 122.552 C 241.995 119.057,235.615 115.471,233.789 114.584 C 231.963 113.696,230.469 112.758,230.469 112.498 C 230.469 112.018,252.024 104.761,253.591 104.714 C 254.063 104.699,255.364 108.994,256.484 114.258 M212.654 131.109 C 230.565 140.261,260.660 158.170,263.130 161.146 C 265.238 163.686,265.946 233.038,263.881 234.784 C 255.979 241.468,203.610 271.873,200.000 271.873 C 196.390 271.873,144.021 241.468,136.119 234.784 C 134.039 233.025,134.749 163.702,136.873 161.142 C 140.247 157.076,196.338 125.000,200.074 125.000 C 200.417 125.000,206.078 127.749,212.654 131.109 M190.562 164.713 C 146.675 176.170,160.944 243.603,205.664 236.085 C 249.500 228.715,244.410 163.371,200.000 163.371 C 197.637 163.371,193.389 163.975,190.562 164.713 M110.613 197.655 C 110.577 207.108,110.315 214.754,110.032 214.648 C 108.905 214.222,91.406 198.294,91.406 197.694 C 91.406 197.092,109.418 180.964,110.613 180.495 C 110.650 180.480,110.650 188.203,110.613 197.655 M300.977 190.381 C 305.166 194.049,308.594 197.340,308.594 197.694 C 308.594 198.294,291.095 214.222,289.968 214.648 C 289.685 214.754,289.423 207.128,289.387 197.700 L 289.321 180.559 291.340 182.135 C 292.451 183.001,296.787 186.712,300.977 190.381 M82.898 223.445 C 87.634 227.747,96.363 235.133,102.295 239.860 L 113.081 248.454 113.627 254.110 C 114.349 261.592,118.386 285.539,120.211 293.164 C 121.008 296.494,121.445 299.225,121.182 299.233 C 120.918 299.241,117.798 299.761,114.247 300.389 C 84.809 305.596,59.900 302.162,49.153 291.415 C 36.445 278.707,43.617 252.815,68.360 222.070 C 74.608 214.308,72.630 214.121,82.898 223.445 M331.640 222.070 C 356.383 252.815,363.555 278.707,350.847 291.415 C 340.100 302.162,315.191 305.596,285.753 300.389 C 282.202 299.761,279.082 299.241,278.818 299.233 C 278.555 299.225,278.992 296.494,279.789 293.164 C 281.614 285.539,285.651 261.592,286.373 254.110 L 286.919 248.454 297.718 239.849 C 303.658 235.117,312.314 227.753,316.954 223.486 C 327.108 214.147,325.396 214.312,331.640 222.070 M147.537 271.349 C 151.255 273.638,157.949 277.552,162.412 280.047 C 167.921 283.127,170.179 284.772,169.443 285.169 C 166.154 286.948,145.911 293.096,145.323 292.495 C 144.800 291.961,139.844 269.411,139.844 267.566 C 139.844 266.757,141.009 267.330,147.537 271.349 M260.156 267.566 C 260.156 269.411,255.200 291.961,254.677 292.495 C 254.094 293.092,233.865 286.956,230.598 285.193 C 229.923 284.828,233.228 282.535,239.973 278.687 C 245.703 275.418,252.324 271.503,254.688 269.986 C 258.806 267.342,260.156 266.745,260.156 267.566 M213.144 304.386 C 220.248 307.229,230.831 311.124,236.660 313.042 C 242.489 314.960,247.407 316.678,247.589 316.860 C 249.061 318.332,235.515 346.317,228.680 355.926 C 210.038 382.134,190.267 382.316,171.671 356.451 C 165.206 347.460,152.344 321.462,152.344 317.387 C 152.344 317.015,157.881 314.869,164.648 312.619 C 171.416 310.368,181.875 306.466,187.891 303.948 C 193.906 301.430,199.143 299.336,199.527 299.294 C 199.912 299.253,206.039 301.544,213.144 304.386 " stroke="none" fill="#000000" fill-rule="evenodd"></path></g></svg>