<svg id="svg" xmlns="http://www.w3.org/2000/svg" xmlns:xlink="http://www.w3.org/1999/xlink" width="400" height="400" viewBox="0, 0, 400,400"><g id="svgg"><path id="path0" d="M198.394 37.581 C 191.547 38.462,192.375 38.105,108.091 76.471 C 49.308 103.228,27.857 113.347,26.330 115.039 C 24.164 117.441,23.161 127.270,23.220 145.526 C 23.264 159.209,23.919 160.082,39.922 167.745 C 51.287 173.188,52.125 173.735,50.722 174.797 C 49.885 175.431,48.910 175.961,48.556 175.975 C 47.846 176.003,44.050 177.679,33.188 182.762 C 23.546 187.275,23.882 186.298,23.972 209.512 C 24.064 233.456,22.970 231.316,39.200 239.298 L 51.600 245.397 43.600 249.164 C 21.696 259.480,23.706 256.214,23.816 281.316 C 23.924 305.862,22.066 302.870,43.493 312.997 C 52.587 317.294,84.051 332.193,113.413 346.106 C 142.776 360.019,168.960 372.309,171.600 373.417 C 178.683 376.390,190.574 376.860,198.123 374.465 C 207.148 371.602,364.795 295.140,366.498 292.800 C 367.762 291.062,368.018 288.430,368.452 272.706 C 369.070 250.310,369.323 251.046,359.538 246.842 C 355.724 245.203,349.677 242.500,346.101 240.835 C 342.526 239.170,339.060 237.620,338.400 237.391 C 337.717 237.155,343.303 234.016,351.370 230.105 C 369.277 221.424,367.826 223.981,368.116 200.594 L 368.351 181.588 366.376 179.672 C 364.511 177.864,338.496 165.601,336.522 165.599 C 336.015 165.599,342.080 162.510,350.000 158.736 C 369.295 149.541,367.624 152.240,368.291 129.197 C 368.986 105.188,370.469 107.436,347.600 97.841 C 344.960 96.734,340.640 94.829,338.000 93.608 C 329.486 89.672,325.697 88.000,325.290 88.000 C 325.072 88.000,320.642 85.987,315.447 83.526 C 310.251 81.066,304.380 78.402,302.400 77.607 C 300.420 76.812,295.560 74.649,291.600 72.800 C 287.640 70.951,282.780 68.794,280.800 68.007 C 278.820 67.220,274.500 65.320,271.200 63.784 C 261.565 59.300,255.979 56.800,255.594 56.800 C 255.278 56.800,252.371 55.488,239.600 49.583 C 225.760 43.184,213.843 38.345,210.995 37.967 C 204.236 37.070,202.728 37.024,198.394 37.581 M272.000 81.992 C 306.100 97.274,335.605 110.477,337.566 111.331 L 341.131 112.885 332.366 116.898 C 327.545 119.106,294.620 134.117,259.200 150.256 L 194.800 179.600 186.800 179.589 L 178.800 179.578 114.800 150.900 C 79.600 135.127,50.544 121.989,50.232 121.703 C 49.810 121.318,184.710 59.396,196.800 54.426 C 203.818 51.540,205.085 52.005,272.000 81.992 M178.790 77.580 C 180.335 80.649,181.600 83.485,181.600 83.882 C 181.600 84.278,177.246 86.144,171.924 88.027 C 160.405 92.103,160.561 92.280,176.800 93.569 C 191.147 94.708,189.683 93.963,194.800 102.723 C 199.670 111.059,199.211 111.048,202.357 102.912 L 204.942 96.224 217.071 95.235 C 223.742 94.691,229.296 94.155,229.414 94.042 C 229.532 93.930,225.482 92.122,220.414 90.023 C 215.346 87.924,211.200 85.953,211.200 85.642 C 211.200 85.330,212.119 82.813,213.243 80.048 C 215.800 73.756,216.355 73.970,205.688 77.139 L 196.655 79.824 186.982 75.912 C 181.661 73.760,177.010 72.000,176.644 72.000 C 176.279 72.000,177.244 74.511,178.790 77.580 M257.067 102.909 C 248.780 106.645,239.750 110.642,237.000 111.792 C 234.250 112.943,232.008 114.090,232.017 114.342 C 232.032 114.752,269.149 129.637,271.692 130.252 C 272.738 130.505,279.405 127.712,300.580 118.150 L 311.959 113.011 298.180 107.183 C 290.601 103.978,281.640 100.177,278.267 98.737 L 272.134 96.118 257.067 102.909 M106.786 105.219 C 83.480 110.341,82.053 119.934,103.740 125.699 C 119.888 129.992,145.771 125.787,150.842 118.047 C 156.462 109.471,126.774 100.826,106.786 105.219 M185.200 136.026 C 174.640 137.713,160.854 139.893,154.565 140.871 C 148.276 141.850,143.416 142.896,143.765 143.196 C 145.559 144.741,189.011 162.497,189.535 161.900 C 190.769 160.493,208.800 133.672,208.800 133.243 C 208.800 132.434,204.565 132.933,185.200 136.026 M328.074 179.234 C 333.966 181.892,339.057 184.337,339.387 184.667 C 339.971 185.251,204.023 247.729,195.749 250.680 C 185.373 254.380,185.014 254.264,129.600 229.424 C 102.540 217.294,73.740 204.411,65.600 200.796 C 57.460 197.181,50.552 193.993,50.248 193.712 C 49.694 193.198,70.838 183.200,72.478 183.200 C 72.959 183.200,95.459 193.664,122.477 206.453 C 193.932 240.278,178.836 240.805,260.000 201.647 C 291.020 186.681,316.616 174.428,316.881 174.418 C 317.145 174.408,322.182 176.575,328.074 179.234 M329.682 251.350 C 335.779 254.072,340.685 256.368,340.584 256.453 C 340.483 256.538,307.911 271.395,268.203 289.468 C 191.565 324.350,190.377 324.816,182.101 323.286 C 177.592 322.453,49.474 265.651,50.039 264.737 C 50.211 264.458,55.193 262.025,61.109 259.329 L 71.865 254.428 120.133 277.309 C 179.129 305.275,174.776 303.550,186.400 303.578 C 198.585 303.607,194.747 305.166,260.000 273.680 C 291.020 258.713,316.894 246.451,317.498 246.433 C 318.102 246.415,323.585 248.627,329.682 251.350 " stroke="none" fill="#000000" fill-rule="evenodd"></path></g></svg>