<svg id="svg" xmlns="http://www.w3.org/2000/svg" xmlns:xlink="http://www.w3.org/1999/xlink" width="400" height="400" viewBox="0, 0, 400,400"><g id="svgg"><path id="path0" d="M218.616 51.172 C 216.179 52.031,199.898 58.008,182.435 64.453 L 150.684 76.172 120.263 102.734 L 89.843 129.297 71.950 159.424 C 62.110 175.994,53.145 190.896,52.029 192.541 L 50.000 195.531 50.000 243.150 C 50.000 296.575,50.271 299.806,55.840 312.749 C 68.408 341.960,88.953 351.525,137.500 350.765 C 140.293 350.721,189.124 350.538,246.013 350.358 C 302.903 350.178,349.581 349.898,349.744 349.735 C 350.745 348.734,349.925 104.434,348.902 99.106 C 344.487 76.114,328.789 59.104,305.469 52.044 L 298.828 50.034 260.938 49.822 C 224.746 49.619,222.848 49.679,218.616 51.172 M296.555 76.574 C 318.135 82.070,328.541 100.730,323.620 125.106 L 323.047 127.946 292.969 102.609 C 276.426 88.673,262.376 76.760,261.747 76.136 C 259.757 74.160,288.499 74.522,296.555 76.574 M235.550 88.672 L 237.359 90.234 227.633 120.703 L 217.907 151.172 187.057 182.057 L 156.206 212.941 123.611 218.223 C 105.684 221.127,90.783 223.489,90.500 223.471 C 89.776 223.424,77.218 200.750,77.502 200.003 C 77.630 199.667,84.931 187.484,93.726 172.930 L 109.718 146.468 136.877 122.648 L 164.036 98.828 193.113 88.162 L 222.190 77.496 227.966 82.303 C 231.142 84.946,234.555 87.813,235.550 88.672 M284.715 129.650 L 308.883 149.609 277.758 149.814 C 260.639 149.926,246.485 149.871,246.305 149.691 C 246.042 149.427,250.215 135.565,257.917 111.126 C 258.914 107.963,256.089 106.010,284.715 129.650 M303.337 183.008 C 295.450 197.530,284.373 213.529,271.641 228.788 L 266.198 235.310 255.478 206.913 C 249.582 191.294,244.507 177.725,244.201 176.758 L 243.645 175.000 275.665 175.000 L 307.686 175.000 303.337 183.008 M228.201 207.481 C 232.546 219.050,237.107 231.233,238.337 234.554 L 240.574 240.592 235.716 238.773 C 233.045 237.772,220.723 233.153,208.334 228.509 L 185.808 220.064 202.829 203.030 C 212.191 193.661,219.951 186.097,220.075 186.221 C 220.199 186.345,223.855 195.912,228.201 207.481 M325.000 252.147 L 325.000 306.637 301.840 283.478 L 278.680 260.318 285.284 252.620 C 299.995 235.470,311.351 220.057,319.922 205.608 C 322.500 201.262,324.697 197.694,324.805 197.681 C 324.912 197.667,325.000 222.177,325.000 252.147 M145.225 244.336 C 144.839 245.947,141.905 259.172,138.706 273.725 C 135.506 288.278,132.756 300.317,132.594 300.479 C 132.432 300.641,125.871 288.980,118.014 274.564 C 110.157 260.149,103.857 248.235,104.013 248.089 C 104.370 247.754,141.980 241.576,144.253 241.478 C 145.798 241.412,145.873 241.633,145.225 244.336 M235.156 266.394 C 235.156 266.997,221.119 278.653,212.860 284.907 C 196.210 297.516,174.371 309.805,159.513 314.928 L 155.354 316.361 155.888 313.845 C 156.496 310.974,170.867 246.567,171.459 244.061 C 171.828 242.497,235.156 264.700,235.156 266.394 M95.622 287.563 C 108.762 311.576,115.112 323.911,114.417 324.072 C 113.840 324.207,110.350 323.796,106.663 323.160 C 89.936 320.273,80.560 311.356,76.898 294.853 C 75.693 289.423,74.247 249.876,75.289 250.844 C 75.557 251.094,84.707 267.617,95.622 287.563 M283.594 301.953 L 306.631 325.000 253.511 324.954 C 212.107 324.918,200.711 324.703,201.843 323.977 C 225.932 308.540,259.939 282.449,260.552 278.935 C 260.555 278.919,270.923 289.277,283.594 301.953 " stroke="none" fill="#000000" fill-rule="evenodd"></path></g></svg>