<svg id="svg" xmlns="http://www.w3.org/2000/svg" xmlns:xlink="http://www.w3.org/1999/xlink" width="400" height="400" viewBox="0, 0, 400,400"><g id="svgg"><path id="path0" d="M125.417 24.686 C 104.922 27.199,90.833 37.081,79.823 56.667 C 77.930 60.036,72.331 69.730,66.348 80.000 C 65.146 82.063,62.268 87.125,59.951 91.250 C 57.634 95.375,55.053 99.875,54.215 101.250 C 53.377 102.625,50.640 107.313,48.132 111.667 C 33.777 136.595,30.846 141.661,28.462 145.662 C 27.016 148.088,25.833 150.262,25.833 150.493 C 25.833 150.724,24.521 152.965,22.917 155.473 C 21.313 157.981,20.000 160.155,20.000 160.305 C 20.000 160.455,18.124 163.729,15.830 167.580 C 1.087 192.341,2.085 208.996,20.170 240.000 C 24.348 247.162,27.218 252.134,42.300 278.333 C 44.807 282.688,47.548 287.375,48.391 288.750 C 49.235 290.125,51.941 294.813,54.405 299.167 C 61.006 310.831,62.710 313.808,67.526 322.083 C 69.927 326.208,74.747 334.622,78.237 340.781 C 88.746 359.324,99.842 368.997,116.250 373.917 C 120.912 375.315,126.601 375.417,200.417 375.417 L 279.583 375.417 286.250 373.066 C 304.915 366.485,310.710 360.311,329.798 326.667 C 330.708 325.063,333.415 320.375,335.812 316.250 C 338.210 312.125,341.022 307.250,342.062 305.417 C 343.101 303.583,345.913 298.708,348.312 294.583 C 350.710 290.458,353.523 285.583,354.563 283.750 C 355.603 281.917,363.306 268.604,371.681 254.167 C 399.306 206.547,400.685 196.068,383.285 165.998 C 381.879 163.568,373.954 149.880,365.674 135.581 C 357.395 121.282,349.769 108.083,348.729 106.250 C 347.689 104.417,344.876 99.542,342.478 95.417 C 340.080 91.292,337.267 86.417,336.228 84.583 C 335.189 82.750,332.376 77.875,329.978 73.750 C 327.580 69.625,324.675 64.563,323.523 62.500 C 322.371 60.438,320.732 57.755,319.881 56.538 C 319.030 55.321,318.333 54.099,318.333 53.822 C 318.333 53.546,317.302 51.866,316.042 50.091 C 314.781 48.316,313.188 46.020,312.500 44.990 C 308.108 38.406,294.157 29.283,283.694 26.152 C 279.097 24.777,135.525 23.447,125.417 24.686 M208.067 98.236 C 214.384 102.812,214.167 100.883,214.167 152.500 C 214.167 204.117,214.384 202.188,208.067 206.764 C 201.129 211.789,190.953 209.070,187.016 201.139 C 184.539 196.148,184.539 108.852,187.016 103.861 C 190.953 95.930,201.129 93.211,208.067 98.236 M151.758 124.630 C 161.726 129.785,161.177 140.594,150.373 151.848 C 108.989 194.959,133.093 264.545,191.915 271.774 C 257.405 279.822,296.188 200.116,250.071 152.253 C 240.856 142.691,239.932 134.964,247.189 128.178 C 254.636 121.216,261.865 122.745,272.087 133.444 C 323.896 187.671,298.309 278.469,225.745 297.897 C 128.828 323.846,58.735 204.564,128.750 132.836 C 139.074 122.259,143.867 120.550,151.758 124.630 " stroke="none" fill="#000000" fill-rule="evenodd"></path></g></svg>