<svg id="svg" xmlns="http://www.w3.org/2000/svg" xmlns:xlink="http://www.w3.org/1999/xlink" width="400" height="400" viewBox="0, 0, 400,400"><g id="svgg"><path id="path0" d="M222.347 17.567 C 199.252 20.013,197.033 21.096,138.333 58.607 C 77.915 97.216,73.304 101.138,61.682 123.806 C 46.894 152.651,48.748 175.060,68.782 209.624 L 70.255 212.165 63.088 222.596 C 49.044 243.038,47.122 248.735,47.099 270.000 C 47.011 351.240,137.688 408.560,209.583 372.711 C 215.599 369.712,301.513 311.984,310.417 304.959 C 344.898 277.753,357.461 225.631,339.229 185.421 L 336.833 180.136 340.557 172.962 C 351.567 151.755,356.633 113.297,350.993 93.750 C 337.535 47.112,277.737 11.700,222.347 17.567 M252.655 65.376 C 286.316 72.511,307.950 104.689,300.723 136.875 C 299.649 141.658,300.267 141.637,293.030 137.127 C 286.262 132.908,274.621 127.324,269.375 125.779 C 266.133 124.825,265.833 124.503,265.833 121.983 C 265.833 107.132,247.563 95.693,233.333 101.634 C 219.653 107.346,153.489 149.431,143.159 158.991 C 131.954 169.360,137.478 190.427,152.729 195.493 C 161.776 198.498,166.102 197.313,185.214 186.594 C 219.326 167.463,222.202 166.468,243.750 166.343 C 269.063 166.195,283.283 173.665,294.082 192.781 C 308.153 217.691,306.118 241.319,288.359 259.254 C 282.075 265.599,195.123 321.223,182.352 327.066 C 138.139 347.298,87.359 306.325,97.904 258.928 C 99.619 251.219,98.401 251.286,108.162 258.366 C 112.611 261.592,119.892 265.999,124.344 268.158 C 131.945 271.845,132.439 272.239,132.469 274.643 C 132.611 286.254,143.656 296.073,157.917 297.267 C 165.982 297.943,168.521 296.741,192.281 280.998 C 206.484 271.588,222.539 261.873,236.488 254.247 C 262.748 239.890,263.290 239.312,264.703 224.099 C 266.013 210.004,255.395 198.333,241.261 198.333 C 234.772 198.333,227.899 201.559,209.780 213.105 C 182.997 230.174,177.537 232.227,160.953 231.467 C 118.122 229.504,87.707 176.369,108.119 139.167 C 115.312 126.057,122.922 121.090,211.591 71.615 C 223.827 64.788,239.001 62.483,252.655 65.376 " stroke="none" fill="#000000" fill-rule="evenodd"></path></g></svg>