<svg id="svg" xmlns="http://www.w3.org/2000/svg" xmlns:xlink="http://www.w3.org/1999/xlink" width="400" height="400" viewBox="0, 0, 400,400"><g id="svgg"><path id="path0" d="M163.021 68.210 C 142.535 72.728,127.846 82.125,101.483 107.581 C 84.861 123.630,83.093 126.119,83.093 133.472 C 83.093 147.612,99.077 155.424,110.591 146.911 C 117.447 141.842,135.842 141.865,158.770 146.972 C 182.137 152.177,194.006 158.025,215.625 174.982 C 259.333 209.267,276.827 217.402,304.651 216.377 C 345.378 214.878,377.442 190.831,395.948 147.906 C 404.084 129.036,399.091 116.674,383.333 116.674 C 375.984 116.674,372.039 119.049,367.433 126.245 C 353.250 148.402,339.331 146.234,298.184 115.456 C 241.704 73.209,202.499 59.505,163.021 68.210 M79.688 184.877 C 59.201 189.395,44.513 198.792,18.149 224.247 C 1.251 240.563,-0.002 242.356,0.004 250.209 C 0.014 264.560,15.610 272.189,27.288 263.555 C 34.045 258.559,52.774 258.599,75.510 263.658 C 98.785 268.836,110.691 274.705,132.292 291.649 C 175.999 325.934,193.494 334.068,221.317 333.044 C 262.045 331.545,294.109 307.498,312.615 264.573 C 320.750 245.703,315.758 233.341,300.000 233.341 C 292.651 233.341,288.706 235.716,284.100 242.912 C 269.917 265.069,255.998 262.900,214.850 232.122 C 158.371 189.876,119.165 176.172,79.688 184.877 " stroke="none" fill="#000000" fill-rule="evenodd"></path></g></svg>