<?xml version="1.0" encoding="UTF-8"?>
<svg version="1.1" xmlns="http://www.w3.org/2000/svg" width="500" height="500">
<path d="M0 0 C5.02557011 4.59398489 8.57415064 9.13269363 9.3359375 16.05078125 C9.41790817 22.89533197 9.38677214 28.50191225 5 34 C1.61208396 37.43291683 -1.98898333 40.56648506 -5.91796875 43.3671875 C-9.06169868 45.65217885 -9.93882089 46.65127905 -10.625 50.5625 C-10.235666 53.99586551 -10.235666 53.99586551 -8.375 56.4375 C-5.30260784 58.45881063 -3.64004515 58.28889247 0 58 C2.79883656 56.93412501 2.79883656 56.93412501 5.5625 55.5 C12.75921207 52.36205474 19.69719183 51.58180712 27.3515625 53.62890625 C33.92157558 56.45730957 38.712581 61.92138935 41.4375 68.4375 C42.83703319 77.3012102 42.16224238 83.37954696 37 91 C32.75269455 95.6923534 28.3486192 98.631266 21.94921875 99.3359375 C13.94006626 99.43185549 8.38838477 98.86738932 2.2890625 93.4921875 C-4.34585987 86.53361038 -5.32685438 78.05709577 -6.375 68.8203125 C-7.04009008 65.81909352 -7.56463257 64.79953258 -10 63 C-13.17075239 61.83182807 -14.52356058 61.81164023 -17.6875 63.0625 C-22.01666683 66.68963978 -22.2217003 72.01235661 -22.8125 77.375 C-24.02987929 85.54352211 -26.61289629 90.36188976 -33.125 95.4375 C-39.30597988 99.85076773 -45.62179302 99.60391018 -53 99 C-59.71414958 97.27476026 -64.10034331 92.53081502 -68 87 C-70.83999901 81.32000198 -70.95402527 74.70741466 -69.3828125 68.6015625 C-66.78623769 61.86885082 -62.10463749 57.01181245 -55.625 53.8359375 C-46.86109588 51.04505137 -38.75364733 52.90081636 -30.75390625 56.90625 C-27.60708979 58.15604944 -25.35793836 58.30441561 -22 58 C-18.74397252 55.85787666 -18.1119155 54.49429347 -17.25 50.6875 C-18.36046412 45.22771808 -21.68666122 43.2482236 -26 40 C-31.16614215 36.04515771 -35.22552948 32.4573927 -37 26 C-37.81429869 19.29252936 -37.94609258 12.71916913 -34.3984375 6.78125 C-25.69852888 -4.30019785 -12.24591085 -8.14126295 0 0 Z " fill="#FB5757" transform="translate(78,193)"/>
<path d="M0 0 C0.33 11.55 0.66 23.1 1 35 C3.97 32.03 6.94 29.06 10 26 C12.65270272 23.64204203 15.3070298 21.30826017 18 19 C18.33 18.67 18.66 18.34 19 18 C21.35313555 17.92728259 23.70833668 17.91629132 26.0625 17.9375 C27.35285156 17.94652344 28.64320313 17.95554688 29.97265625 17.96484375 C30.97167969 17.97644531 31.97070312 17.98804688 33 18 C31.54254576 21.36335594 29.68882146 23.54534005 27.0859375 26.109375 C26.32539063 26.86347656 25.56484375 27.61757812 24.78125 28.39453125 C23.9871875 29.17183594 23.193125 29.94914062 22.375 30.75 C21.17230469 31.93916016 21.17230469 31.93916016 19.9453125 33.15234375 C17.96797154 35.10614493 15.98611091 37.05512103 14 39 C14.92500301 40.26290106 15.85422962 41.52270908 16.78515625 42.78125 C17.30215088 43.48314453 17.81914551 44.18503906 18.35180664 44.90820312 C19.94149422 46.92574766 21.60406406 48.70385515 23.4375 50.5 C27.15032614 54.14768884 30.57256659 58.08293324 34 62 C34.33 42.2 34.66 22.4 35 2 C39.62 2 44.24 2 49 2 C49 18.5 49 35 49 52 C59.89 52 70.78 52 82 52 C82 55.96 82 59.92 82 64 C73.81082713 64.20404047 65.62365749 64.36883587 57.43261814 64.46630955 C53.62834677 64.51311346 49.82591669 64.57649267 46.02270508 64.67895508 C42.34613664 64.77737586 38.6713285 64.83068375 34.99354362 64.85389519 C33.59678381 64.87041549 32.2001112 64.90267925 30.80410957 64.95157051 C19.92343638 65.31717912 19.92343638 65.31717912 15.21774292 62.09469604 C12.93305477 59.8379242 10.96139445 57.53926937 9 55 C7.67359714 53.49386812 6.34130719 51.99287401 5 50.5 C4 49.33333333 3 48.16666667 2 47 C1.67 46.67 1.34 46.34 1 46 C0.67 51.94 0.34 57.88 0 64 C-4.29 64 -8.58 64 -13 64 C-13 43.87 -13 23.74 -13 3 C-4 0 -4 0 0 0 Z " fill="#F85757" transform="translate(313,209)"/>
<path d="M0 0 C5.61 0 11.22 0 17 0 C17.83144531 1.67449219 18.66289062 3.34898437 19.51953125 5.07421875 C20.61708094 7.27869889 21.71474307 9.48312305 22.8125 11.6875 C23.35970703 12.79029297 23.90691406 13.89308594 24.47070312 15.02929688 C25.00244141 16.09599609 25.53417969 17.16269531 26.08203125 18.26171875 C26.56905518 19.24100342 27.0560791 20.22028809 27.55786133 21.22924805 C28.97413444 24.03118256 28.97413444 24.03118256 30.68237305 26.73364258 C32 29 32 29 32 31 C32.66 31 33.32 31 34 31 C34.34224609 29.80890625 34.34224609 29.80890625 34.69140625 28.59375 C36.36865738 23.9875678 38.61543962 19.80904711 40.9375 15.5 C41.82214239 13.84403185 42.706269 12.18778805 43.58984375 10.53125 C44.00476074 9.75523437 44.41967773 8.97921875 44.84716797 8.1796875 C46.27785328 5.47465606 47.64940343 2.74576728 49 0 C51.81256281 -0.02684312 54.62487241 -0.04676188 57.4375 -0.0625 C58.64116211 -0.07506836 58.64116211 -0.07506836 59.86914062 -0.08789062 C61.91295221 -0.0965143 63.95683902 -0.0522815 66 0 C67 1 67 1 67.12025452 3.43605042 C67.11803391 4.51748825 67.11581329 5.59892609 67.11352539 6.71313477 C67.11341209 8.54492027 67.11341209 8.54492027 67.11329651 10.41371155 C67.10818911 11.75627686 67.10297311 13.09884175 67.09765625 14.44140625 C67.09579199 15.80761158 67.09436813 17.17381757 67.09336853 18.5400238 C67.08954394 22.14201695 67.07971417 25.74397 67.06866455 29.34594727 C67.05844916 33.01903745 67.05387064 36.69213409 67.04882812 40.36523438 C67.03809184 47.57684334 67.02049553 54.78841095 67 62 C62.71 62 58.42 62 54 62 C53.67 48.47 53.34 34.94 53 21 C51.535625 23.949375 50.07125 26.89875 48.5625 29.9375 C43.8601272 39.37426641 38.98265015 48.70868137 34 58 C33.34 58 32.68 58 32 58 C31.67314209 57.37134033 31.34628418 56.74268066 31.00952148 56.0949707 C29.48647371 53.16698032 27.96199036 50.23973953 26.4375 47.3125 C25.92380859 46.32443359 25.41011719 45.33636719 24.88085938 44.31835938 C20.98503771 36.8412855 16.99814047 29.42511801 13 22 C12.67 35.2 12.34 48.4 12 62 C8.04 62 4.08 62 0 62 C0 41.54 0 21.08 0 0 Z " fill="#F85656" transform="translate(127,211)"/>
<path d="M0 0 C0.33 6.6 0.66 13.2 1 20 C2.464375 19.484375 3.92875 18.96875 5.4375 18.4375 C12.2114527 16.43111062 17.68958288 16.80057697 24.1875 19.5625 C30.16285675 22.83045958 33.92489512 28.62376865 36 35 C36.8371969 42.602916 36.86908587 49.79803588 32 56 C27.13260095 61.21950877 22.69754675 64.68307406 15.39453125 65.17578125 C10.20127577 65.30894165 5.84440604 65.09487829 1 63 C0.505 63.495 0.505 63.495 0 64 C-4.29 64 -8.58 64 -13 64 C-13 43.87 -13 23.74 -13 3 C-4 0 -4 0 0 0 Z M0 33 C-0.83226166 35.88027075 -0.75062138 38.58527339 -0.625 41.5625 C-0.63144531 42.33013672 -0.63789063 43.09777344 -0.64453125 43.88867188 C-0.56190651 48.36261976 -0.56190651 48.36261976 1.8515625 51.96484375 C6.0568039 53.99100552 9.35617823 54.32026357 14 54 C18.10219771 52.18740101 20.76415359 49.89202893 23 46 C23.79607549 41.11901187 23.76602141 37.31317955 21.25 33 C17.88218792 30.00638926 15.14804731 28.70435171 10.625 28.625 C9.53058594 28.58246094 9.53058594 28.58246094 8.4140625 28.5390625 C4.73152591 29.24220056 2.76957692 30.47040063 0 33 Z " fill="#F75757" transform="translate(458,209)"/>
<path d="M0 0 C3.6650057 3.02761341 5.59887991 5.48895345 7 10 C7.16496802 12.68010949 7.23378795 15.2499358 7.1953125 17.92578125 C7.1924826 18.67337204 7.18965271 19.42096283 7.18673706 20.19120789 C7.17559469 22.5651388 7.15050162 24.93868425 7.125 27.3125 C7.11496249 28.9277289 7.10583799 30.54296376 7.09765625 32.15820312 C7.07567489 36.10561594 7.04118657 40.05274274 7 44 C1.66666667 44 -3.66666667 44 -9 44 C-10.485 44.495 -10.485 44.495 -12 45 C-19.70067766 45.63478559 -25.77643539 45.87061578 -32 41 C-35.32757249 38.00518476 -35.72340222 34.54839689 -36.0625 30.24609375 C-35.9674466 26.83011212 -34.93924794 24.77958871 -33 22 C-27.69775947 17.09542751 -23.41429081 16.84026079 -16.4375 16.875 C-15.65697266 16.87113281 -14.87644531 16.86726563 -14.07226562 16.86328125 C-8.25335498 16.87332251 -8.25335498 16.87332251 -6 18 C-6.87722099 13.25532755 -6.87722099 13.25532755 -9.6875 9.5625 C-16.60907362 7.87887399 -22.46391213 9.79061818 -29 12 C-29.83878455 10.71186658 -30.67086783 9.41936744 -31.5 8.125 C-31.9640625 7.40570313 -32.428125 6.68640625 -32.90625 5.9453125 C-34 4 -34 4 -34 2 C-32.43979133 1.34865075 -30.87671421 0.70417036 -29.3125 0.0625 C-28.44238281 -0.29714844 -27.57226562 -0.65679687 -26.67578125 -1.02734375 C-18.17240207 -4.11835312 -8.03520402 -4.58371866 0 0 Z M-23 28 C-23.41780879 30.37305578 -23.41780879 30.37305578 -23 33 C-20.68992722 35.2355543 -18.99577193 35.98779264 -15.76953125 36.02734375 C-11.72443267 35.66440668 -9.44853221 35.29902147 -6 33 C-5.7497843 29.91634129 -5.7497843 29.91634129 -6 27 C-12.93759865 24.86535426 -16.55050448 24.48209335 -23 28 Z " fill="#F75757" transform="translate(433,229)"/>
<path d="M0 0 C5.7440343 4.43567093 8.42125336 9.54063362 9.796875 16.62890625 C10.29185205 24.11543417 8.62219989 30.79547358 3.796875 36.62890625 C-3.38984096 42.61783622 -9.26913859 44.06062954 -18.55078125 43.96484375 C-24.86146022 43.38439627 -29.61959934 41.25010833 -34.078125 36.7265625 C-38.6481864 31.00300003 -40.73020328 25.3974894 -40.5078125 18.05859375 C-39.5454102 10.38405234 -36.40857802 4.79142858 -30.33984375 0.03515625 C-20.7705415 -6.2627392 -9.70415715 -6.03928929 0 0 Z M-27.203125 15.62890625 C-27.71518463 21.97844561 -27.05508089 25.25992912 -22.8671875 30.20703125 C-19.80654947 32.82222431 -16.10453995 32.84231698 -12.203125 32.62890625 C-8.44490231 30.88898834 -6.67472875 29.28306629 -4.265625 25.94140625 C-2.84535086 21.51349276 -2.67318745 18.05310711 -4.203125 13.62890625 C-6.62496416 10.1251212 -9.3261617 8.0709215 -13.4921875 7.08984375 C-20.64609434 6.63524766 -23.361661 9.86671025 -27.203125 15.62890625 Z " fill="#F85758" transform="translate(238.203125,230.37109375)"/>
<path d="M0 0 C5.13580039 2.8997362 7.88922536 6.74074127 9.6875 12.3125 C9.85214931 14.92086374 9.92142915 17.41569498 9.8828125 20.01953125 C9.8799826 20.74492599 9.87715271 21.47032074 9.87423706 22.21769714 C9.86309799 24.52030368 9.83800566 26.82251227 9.8125 29.125 C9.80246206 30.69205165 9.79333763 32.25910943 9.78515625 33.82617188 C9.7631793 37.65509978 9.72869339 41.48373256 9.6875 45.3125 C5.3975 45.3125 1.1075 45.3125 -3.3125 45.3125 C-3.36148437 43.26546875 -3.41046875 41.2184375 -3.4609375 39.109375 C-3.51657705 37.12026094 -3.57228369 35.13114813 -3.62988281 33.14208984 C-3.66809338 31.76294757 -3.70296002 30.38370833 -3.734375 29.00439453 C-3.78019624 27.01833033 -3.83916263 25.03258321 -3.8984375 23.046875 C-3.94556885 21.25588379 -3.94556885 21.25588379 -3.99365234 19.42871094 C-4.29729038 16.46114903 -4.60911344 14.73537776 -6.3125 12.3125 C-9.50897427 10.69600973 -9.50897427 10.69600973 -13.3125 10.3125 C-16.7775 11.7975 -16.7775 11.7975 -20.3125 13.3125 C-20.6425 23.8725 -20.9725 34.4325 -21.3125 45.3125 C-25.6025 45.3125 -29.8925 45.3125 -34.3125 45.3125 C-34.3125 30.1325 -34.3125 14.9525 -34.3125 -0.6875 C-30.0225 -0.6875 -25.7325 -0.6875 -21.3125 -0.6875 C-21.3125 -0.0275 -21.3125 0.6325 -21.3125 1.3125 C-19.6109375 0.57 -19.6109375 0.57 -17.875 -0.1875 C-11.66258171 -2.47743902 -6.09821637 -2.78323048 0 0 Z " fill="#F55859" transform="translate(285.3125,227.6875)"/>
<path d="M0 0 C4.7037037 1.48538012 4.7037037 1.48538012 6.1875 4.0625 C6.455625 4.701875 6.72375 5.34125 7 6 C7.66 6.33 8.32 6.66 9 7 C9 6.01 9 5.02 9 4 C9.66 4 10.32 4 11 4 C11 3.34 11 2.68 11 2 C11.99 2.33 12.98 2.66 14 3 C13.34 3.66 12.68 4.32 12 5 C11.57568409 8.81884318 11.4609566 11.12405448 13.5 14.4375 C17.13646461 16.71029038 19.75782535 16.28281164 24 16 C23.67 16.66 23.34 17.32 23 18 C20.93359375 18.4140625 20.93359375 18.4140625 18.4375 18.625 C17.61121094 18.69976562 16.78492187 18.77453125 15.93359375 18.8515625 C14.97646484 18.92503906 14.97646484 18.92503906 14 19 C14.33 20.32 14.66 21.64 15 23 C14.113125 22.505 13.22625 22.01 12.3125 21.5 C9.12413762 20.05621326 7.41812454 19.69840078 4 20 C4.66 19.67 5.32 19.34 6 19 C6 18.34 6 17.68 6 17 C4.02 17 2.04 17 0 17 C0.66 16.319375 1.32 15.63875 2 14.9375 C4.50978123 11.25125882 4.62608836 9.38261849 4 5 C2.14283813 2.09190457 2.14283813 2.09190457 0 0 Z " fill="#F3595A" transform="translate(56,235)"/>
<path d="M0 0 C3.2578125 -0.29296875 3.2578125 -0.29296875 7.125 -0.1875 C9.04699219 -0.14689453 9.04699219 -0.14689453 11.0078125 -0.10546875 C11.99523437 -0.07066406 12.98265625 -0.03585938 14 0 C12.38873705 4.05227809 9.49978002 6.76221847 6.4375 9.75 C5.93025391 10.25660156 5.42300781 10.76320312 4.90039062 11.28515625 C1.14048812 15 1.14048812 15 0 15 C0.11398665 13.37419034 0.24155659 11.74932843 0.375 10.125 C0.47941406 8.76761719 0.47941406 8.76761719 0.5859375 7.3828125 C1 5 1 5 3 3 C1.35 3 -0.3 3 -2 3 C-1.34 2.01 -0.68 1.02 0 0 Z " fill="#F25859" transform="translate(332,227)"/>
<path d="M0 0 C5.08231321 4.53287394 7.67159057 8.39649382 8.28515625 15.12890625 C8.44347621 21.17948202 8.47680534 25.92965889 5 31 C4.375 29.25 4.375 29.25 4 27 C4.3196875 26.4328125 4.639375 25.865625 4.96875 25.28125 C6.3677666 22.18645571 6.19257669 19.62883434 6.125 16.25 C6.09792969 14.49429688 6.09792969 14.49429688 6.0703125 12.703125 C6.04710937 11.81109375 6.02390625 10.9190625 6 10 C4.68 9.34 3.36 8.68 2 8 C2.33 7.34 2.66 6.68 3 6 C1.35 6 -0.3 6 -2 6 C-2.33 4.68 -2.66 3.36 -3 2 C-2.01 2.495 -2.01 2.495 -1 3 C-0.67 2.01 -0.34 1.02 0 0 Z " fill="#F3595C" transform="translate(486,232)"/>
<path d="M0 0 C0.99 0.33 1.98 0.66 3 1 C2.34 1.66 1.68 2.32 1 3 C0.57568409 6.81884318 0.4609566 9.12405448 2.5 12.4375 C6.13646461 14.71029038 8.75782535 14.28281164 13 14 C12.67 14.66 12.34 15.32 12 16 C9.93359375 16.4140625 9.93359375 16.4140625 7.4375 16.625 C6.61121094 16.69976562 5.78492187 16.77453125 4.93359375 16.8515625 C3.97646484 16.92503906 3.97646484 16.92503906 3 17 C3.33 18.32 3.66 19.64 4 21 C3.113125 20.505 2.22625 20.01 1.3125 19.5 C-1.87586238 18.05621326 -3.58187546 17.69840078 -7 18 C-6.34 17.67 -5.68 17.34 -5 17 C-5 16.34 -5 15.68 -5 15 C-3.02 15 -1.04 15 1 15 C1 14.34 1 13.68 1 13 C0.34 13 -0.32 13 -1 13 C-1.02696365 11.20841511 -1.04637917 9.41671527 -1.0625 7.625 C-1.07410156 6.62726563 -1.08570312 5.62953125 -1.09765625 4.6015625 C-1 2 -1 2 0 0 Z " fill="#E85C5F" transform="translate(67,237)"/>
<path d="M0 0 C0.66 0.66 1.32 1.32 2 2 C3.31747324 2.69748583 4.64914193 3.36959957 6 4 C6 4.99 6 5.98 6 7 C11.94 7.66 17.88 8.32 24 9 C24 9.33 24 9.66 24 10 C14.99290262 10.58403369 7.46887675 10.57597871 0 5 C-1.76953125 2.828125 -1.76953125 2.828125 -3 1 C-2.01 0.67 -1.02 0.34 0 0 Z " fill="#E55D5F" transform="translate(206,264)"/>
<path d="M0 0 C0 0.66 0 1.32 0 2 C-0.66 2 -1.32 2 -2 2 C-1.2265625 2.8971875 -1.2265625 2.8971875 -0.4375 3.8125 C0.036875 4.534375 0.51125 5.25625 1 6 C0.67 6.99 0.34 7.98 0 9 C-0.78375 8.195625 -1.5675 7.39125 -2.375 6.5625 C-5.64358925 3.3717343 -6.9639183 2.86034524 -11.375 2.875 C-12.53128906 2.87113281 -12.53128906 2.87113281 -13.7109375 2.8671875 C-15.9328189 2.99610212 -17.86618508 3.38616283 -20 4 C-20 3.34 -20 2.68 -20 2 C-16.47651856 0.82550619 -13.11230826 0.64957503 -9.4375 0.4375 C-8.40979492 0.37272461 -8.40979492 0.37272461 -7.36132812 0.30664062 C-2.4015377 0 -2.4015377 0 0 0 Z " fill="#E65A59" transform="translate(480,236)"/>
<path d="M0 0 C3.27723056 1.05339554 4.60460094 2.63763259 6.3125 5.5 C7.1478125 7.2325 7.1478125 7.2325 8 9 C7.67 9.66 7.34 10.32 7 11 C5.35 10.67 3.7 10.34 2 10 C1.896875 9.236875 1.79375 8.47375 1.6875 7.6875 C0.95635961 4.82940576 0.23048087 3.84257115 -2 2 C-1.34 2 -0.68 2 0 2 C0 1.34 0 0.68 0 0 Z " fill="#F05B5C" transform="translate(111,252)"/>
<path d="M0 0 C0 3 0 3 -1.0625 5 C-2.34011157 7.12797292 -2.34011157 7.12797292 -1 10 C-0.67 9.34 -0.34 8.68 0 8 C0.99 8.33 1.98 8.66 3 9 C3 9.99 3 10.98 3 12 C1.02 12 -0.96 12 -3 12 C-3.33 10.68 -3.66 9.36 -4 8 C-5.32 7.67 -6.64 7.34 -8 7 C-5.36 4.69 -2.72 2.38 0 0 Z " fill="#F64E4F" transform="translate(329,230)"/>
<path d="M0 0 C3.2578125 -0.29296875 3.2578125 -0.29296875 7.125 -0.1875 C9.04699219 -0.14689453 9.04699219 -0.14689453 11.0078125 -0.10546875 C11.99523437 -0.07066406 12.98265625 -0.03585938 14 0 C13.34 1.32 12.68 2.64 12 4 C11.34 3.67 10.68 3.34 10 3 C7.95944995 2.92934383 5.91665743 2.91578024 3.875 2.9375 C2.77929688 2.94652344 1.68359375 2.95554688 0.5546875 2.96484375 C-0.70988281 2.98224609 -0.70988281 2.98224609 -2 3 C-1.34 2.01 -0.68 1.02 0 0 Z " fill="#DD6162" transform="translate(332,227)"/>
<path d="M0 0 C1.65 0 3.3 0 5 0 C5 1.32 5 2.64 5 4 C5.99 4.33 6.98 4.66 8 5 C4.37 5 0.74 5 -3 5 C-2.67 4.01 -2.34 3.02 -2 2 C-1.34 2 -0.68 2 0 2 C0 1.34 0 0.68 0 0 Z " fill="#FB5454" transform="translate(337,268)"/>
<path d="M0 0 C2.475 0.99 2.475 0.99 5 2 C4.67 5.3 4.34 8.6 4 12 C3.67 12 3.34 12 3 12 C3 9.36 3 6.72 3 4 C1.68 4.99 0.36 5.98 -1 7 C-2 4 -2 4 -1.0625 1.8125 C-0.5365625 0.9153125 -0.5365625 0.9153125 0 0 Z " fill="#F25B5C" transform="translate(50,265)"/>
<path d="M0 0 C3.24303336 4.86455004 2.48145097 10.30631901 2 16 C1.25339036 18.41677109 0.43894811 19.90153401 -1 22 C-1.625 20.25 -1.625 20.25 -2 18 C-1.6803125 17.443125 -1.360625 16.88625 -1.03125 16.3125 C0.41542221 13.06844717 0.19040601 10.28192443 0.125 6.75 C0.10695313 5.48671875 0.08890625 4.2234375 0.0703125 2.921875 C0.04710937 1.95765625 0.02390625 0.9934375 0 0 Z " fill="#E35D5D" transform="translate(492,241)"/>
<path d="M0 0 C-0.83144531 0.38091797 -0.83144531 0.38091797 -1.6796875 0.76953125 C-2.40414062 1.11371094 -3.12859375 1.45789063 -3.875 1.8125 C-4.59429687 2.14894531 -5.31359375 2.48539063 -6.0546875 2.83203125 C-8.30542806 3.99467097 -8.30542806 3.99467097 -10 7 C-12.625 7.6875 -12.625 7.6875 -15 8 C-11.05375489 2.77702853 -7.08862275 -2.21043075 0 0 Z " fill="#E05B5E" transform="translate(218,228)"/>
<path d="M0 0 C-1.65 0.33 -3.3 0.66 -5 1 C-4.67 2.98 -4.34 4.96 -4 7 C-4.99 6.67 -5.98 6.34 -7 6 C-7 5.01 -7 4.02 -7 3 C-8.65 3.66 -10.3 4.32 -12 5 C-12.66 4.34 -13.32 3.68 -14 3 C-12.42274653 2.29866401 -10.83788667 1.614417 -9.25 0.9375 C-7.92742187 0.36322266 -7.92742187 0.36322266 -6.578125 -0.22265625 C-3.84743691 -1.04600008 -2.63098653 -0.9773992 0 0 Z " fill="#E55A5A" transform="translate(413,228)"/>
<path d="M0 0 C0.66 0.66 1.32 1.32 2 2 C1.34 2.66 0.68 3.32 0 4 C-0.33 4.99 -0.66 5.98 -1 7 C-2.29355827 8.37195574 -3.62298702 9.71182656 -5 11 C-5.33 10.34 -5.66 9.68 -6 9 C-4.21293716 5.54912004 -2.74146784 2.74146784 0 0 Z " fill="#E95D5E" transform="translate(15,252)"/>
<path d="M0 0 C4.3479182 0.65877548 7.97417319 2.27464565 12 4 C14.77888613 4.69140522 14.77888613 4.69140522 17 5 C17 5.33 17 5.66 17 6 C14.36 6.33 11.72 6.66 9 7 C9 6.01 9 5.02 9 4 C7.35 4 5.7 4 4 4 C4 3.34 4 2.68 4 2 C2.68 1.67 1.36 1.34 0 1 C0 0.67 0 0.34 0 0 Z " fill="#E65C5F" transform="translate(38,247)"/>
<path d="M0 0 C0.33 0.66 0.66 1.32 1 2 C-3.46153846 8.92307692 -3.46153846 8.92307692 -6 11 C-6.66 11 -7.32 11 -8 11 C-7.67 9.35 -7.34 7.7 -7 6 C-5.68 5.67 -4.36 5.34 -3 5 C-2.814375 4.0409375 -2.814375 4.0409375 -2.625 3.0625 C-2.41875 2.381875 -2.2125 1.70125 -2 1 C-1.34 0.67 -0.68 0.34 0 0 Z " fill="#E55D61" transform="translate(52,277)"/>
<path d="M0 0 C1.65 0.33 3.3 0.66 5 1 C5 3.31 5 5.62 5 8 C3.02 6.35 1.04 4.7 -1 3 C-0.67 2.01 -0.34 1.02 0 0 Z " fill="#ED5B5A" transform="translate(316,253)"/>
<path d="M0 0 C0.66 0.33 1.32 0.66 2 1 C1.01 2.485 1.01 2.485 0 4 C0.66 5.32 1.32 6.64 2 8 C0.68 8 -0.64 8 -2 8 C-4 5 -4 5 -3.8125 2.875 C-3.544375 2.25625 -3.27625 1.6375 -3 1 C-2.01 0.67 -1.02 0.34 0 0 Z " fill="#EA5957" transform="translate(327,245)"/>
<path d="M0 0 C0.66 0.33 1.32 0.66 2 1 C1.9175 1.763125 1.835 2.52625 1.75 3.3125 C1.70833333 6.14583333 1.70833333 6.14583333 4 7.8125 C4.66 8.204375 5.32 8.59625 6 9 C4.02 9.66 2.04 10.32 0 11 C-1.35015859 6.94952424 -0.62084998 4.2079832 0 0 Z " fill="#EA595F" transform="translate(409,256)"/>
<path d="M0 0 C0 0.99 0 1.98 0 3 C0.1496644 4.39775858 0.31720487 5.7936871 0.5 7.1875 C0.665 8.445625 0.83 9.70375 1 11 C-1.79872437 8.47211993 -3.45773019 6.79588866 -4 3 C-3.34 3 -2.68 3 -2 3 C-2 2.34 -2 1.68 -2 1 C-1.34 0.67 -0.68 0.34 0 0 Z " fill="#F15C5E" transform="translate(13,273)"/>
<path d="M0 0 C0.66 0.33 1.32 0.66 2 1 C1.01 2.32 0.02 3.64 -1 5 C-0.34 5 0.32 5 1 5 C1 5.66 1 6.32 1 7 C-0.65 7.33 -2.3 7.66 -4 8 C-3.50168276 4.31245243 -2.89932357 2.39509338 0 0 Z " fill="#E9575B" transform="translate(402,249)"/>
<path d="M0 0 C0.66 0.33 1.32 0.66 2 1 C1.07161713 2.31896465 0.13194268 3.62998689 -0.8125 4.9375 C-1.59560547 6.03384766 -1.59560547 6.03384766 -2.39453125 7.15234375 C-4 9 -4 9 -7 10 C-5.6062718 5.56541027 -3.39417765 3.12621626 0 0 Z " fill="#DE5D60" transform="translate(50,193)"/>
<path d="M0 0 C0.95904856 3.83619425 0.91892116 5.32431536 0 9 C-0.99 9 -1.98 9 -3 9 C-3 9.66 -3 10.32 -3 11 C-3.66 10.67 -4.32 10.34 -5 10 C-3.35 6.7 -1.7 3.4 0 0 Z " fill="#E55B5A" transform="translate(172,219)"/>
<path d="M0 0 C0.33 0 0.66 0 1 0 C1.02712066 1.43739513 1.04645067 2.87493863 1.0625 4.3125 C1.07410156 5.11300781 1.08570312 5.91351563 1.09765625 6.73828125 C1 9 1 9 0 12 C-0.99 11.67 -1.98 11.34 -3 11 C-2.67 9.68 -2.34 8.36 -2 7 C-1.34 7 -0.68 7 0 7 C0 4.69 0 2.38 0 0 Z " fill="#E65A5C" transform="translate(119,265)"/>
<path d="M0 0 C1.32 1.65 2.64 3.3 4 5 C3.67 5.66 3.34 6.32 3 7 C2.01 7 1.02 7 0 7 C-0.38133299 5.0085944 -0.71325582 3.00720923 -1 1 C-0.67 0.67 -0.34 0.34 0 0 Z " fill="#EA5B5F" transform="translate(435,231)"/>
<path d="M0 0 C0 0.66 0 1.32 0 2 C-2 4 -2 4 -4.625 4.125 C-5.40875 4.08375 -6.1925 4.0425 -7 4 C-7.33 3.34 -7.66 2.68 -8 2 C-5.09399739 0.74335022 -3.20395416 0 0 0 Z " fill="#E95B5F" transform="translate(467,227)"/>
<path d="M0 0 C1.0326802 2.78823655 1.04509293 3.8677274 0.0625 6.75 C-0.288125 7.4925 -0.63875 8.235 -1 9 C-1.66 9 -2.32 9 -3 9 C-2.44271087 5.65626525 -1.64826111 2.96687001 0 0 Z " fill="#E55A5B" transform="translate(202,236)"/>
<path d="M0 0 C2.125 0.375 2.125 0.375 4 1 C2.35 2.65 0.7 4.3 -1 6 C-1.625 4.125 -1.625 4.125 -2 2 C-1.34 1.34 -0.68 0.68 0 0 Z " fill="#EC585C" transform="translate(77,227)"/>
<path d="M0 0 C0.86625 0.4640625 0.86625 0.4640625 1.75 0.9375 C3.84294184 1.92583364 5.74535275 2.5168613 8 3 C8 3.99 8 4.98 8 6 C4.08597051 4.73058503 2.20927127 3.48832306 0 0 Z " fill="#E45D5F" transform="translate(14,284)"/>
<path d="M0 0 C1.65 1.32 3.3 2.64 5 4 C4.67 4.99 4.34 5.98 4 7 C3.01 6.67 2.02 6.34 1 6 C0.67 4.02 0.34 2.04 0 0 Z " fill="#EA5B5D" transform="translate(341,266)"/>
</svg>
