<svg id="svg" version="1.1" xmlns="http://www.w3.org/2000/svg" xmlns:xlink="http://www.w3.org/1999/xlink" width="400" height="400" viewBox="0, 0, 400,400"><g id="svgg"><path id="path0" d="M77.847 155.400 C 77.491 155.950,76.840 159.031,76.400 162.247 L 75.600 168.095 70.800 170.122 C 63.143 173.357,63.076 173.353,58.482 169.273 C 52.891 164.307,52.044 164.465,44.655 171.855 C 37.264 179.245,37.242 179.383,42.426 185.308 C 44.641 187.839,46.282 190.290,46.073 190.755 C 45.864 191.220,44.648 194.120,43.371 197.200 L 41.049 202.800 35.015 203.297 C 26.835 203.970,27.200 203.453,27.200 214.349 C 27.200 225.510,27.056 225.303,35.326 226.052 L 41.408 226.603 42.393 229.902 C 42.935 231.716,44.072 234.563,44.920 236.228 L 46.461 239.256 42.431 243.890 C 37.257 249.838,37.225 249.666,45.017 257.418 C 52.804 265.164,52.507 265.106,58.335 260.056 L 62.887 256.113 69.356 258.656 L 75.825 261.200 76.392 267.200 C 77.164 275.361,76.929 275.200,88.070 275.200 C 98.764 275.200,99.200 274.955,99.200 268.953 C 99.200 264.688,100.035 260.800,100.952 260.800 C 102.410 260.800,109.600 257.394,109.600 256.703 C 109.600 256.317,107.944 253.870,105.921 251.264 L 102.242 246.527 98.921 247.713 C 83.403 253.258,64.423 245.502,56.864 230.527 C 43.129 203.318,67.704 173.478,97.550 181.124 C 100.349 181.841,102.707 182.332,102.791 182.214 C 102.875 182.096,104.515 179.889,106.436 177.310 C 110.390 171.999,110.169 171.354,103.739 169.427 C 100.110 168.340,99.200 166.551,99.200 160.508 C 99.200 158.205,98.768 155.888,98.240 155.360 C 96.875 153.995,78.733 154.031,77.847 155.400 M120.496 172.187 C 112.929 174.189,109.612 180.528,109.604 193.000 L 109.600 200.800 104.139 200.800 C 97.342 200.800,95.193 199.103,95.401 193.898 C 95.635 188.010,91.390 184.136,85.843 185.177 C 76.723 186.888,78.777 201.357,88.045 200.688 C 90.538 200.508,91.595 200.971,94.324 203.436 C 97.493 206.299,97.808 206.400,103.602 206.400 L 109.600 206.400 109.600 209.200 L 109.600 212.000 97.189 212.000 L 84.777 212.000 82.589 209.552 C 77.795 204.190,68.800 207.662,68.800 214.874 C 68.800 221.373,77.461 225.012,82.036 220.436 C 83.116 219.356,84.000 218.096,84.000 217.636 C 84.000 217.089,88.429 216.800,96.800 216.800 L 109.600 216.800 109.600 220.000 L 109.600 223.200 103.357 223.200 C 97.272 223.200,97.045 223.271,94.400 226.000 C 92.062 228.412,91.169 228.800,87.952 228.800 C 78.803 228.800,76.513 241.133,85.134 243.978 C 90.745 245.830,95.429 242.021,95.338 235.679 C 95.262 230.383,98.120 228.000,104.550 228.000 L 109.600 228.000 109.618 236.600 C 109.637 246.176,110.786 249.908,114.899 253.749 C 123.328 261.622,138.537 257.310,141.216 246.287 C 141.570 244.833,142.396 244.040,143.865 243.745 C 155.032 241.501,159.010 225.640,150.650 216.695 L 148.683 214.590 150.785 212.487 C 158.817 204.456,154.995 187.919,144.629 185.846 C 142.743 185.469,141.923 184.567,140.461 181.260 C 136.818 173.024,129.648 169.765,120.496 172.187 M128.949 176.828 C 137.319 179.153,139.564 190.763,132.036 192.790 C 129.418 193.495,128.800 194.021,128.800 195.545 C 128.800 200.620,137.796 197.806,141.238 191.654 C 143.209 188.131,150.400 195.150,150.400 200.597 C 150.400 211.528,136.360 216.645,133.696 206.686 C 133.236 204.967,132.603 204.400,131.142 204.400 C 128.678 204.400,128.412 210.162,130.758 212.753 C 132.122 214.260,132.111 214.432,130.489 217.056 C 128.551 220.192,128.304 223.392,129.899 224.716 C 131.443 225.997,133.595 224.957,133.625 222.914 C 133.716 216.789,142.002 215.479,147.278 220.755 C 151.808 225.285,150.989 233.808,145.682 237.374 C 142.169 239.733,142.061 239.714,140.083 236.361 C 137.170 231.424,129.200 229.402,129.200 233.600 C 129.200 235.169,129.787 235.790,131.923 236.480 C 141.796 239.671,135.883 253.383,124.982 252.577 C 113.878 251.756,109.590 233.002,120.030 230.914 C 122.171 230.486,122.473 230.118,122.254 228.209 C 121.984 225.858,120.100 225.389,116.200 226.702 L 114.400 227.308 114.400 214.971 L 114.400 202.635 118.464 203.025 L 122.527 203.416 122.264 201.108 C 122.056 199.290,121.550 198.748,119.883 198.555 C 111.141 197.543,112.987 180.428,122.192 177.143 C 125.893 175.823,125.411 175.845,128.949 176.828 M90.152 191.709 C 90.814 193.433,89.393 195.600,87.600 195.600 C 86.816 195.600,85.808 195.019,85.360 194.309 C 84.138 192.371,85.267 190.400,87.600 190.400 C 88.760 190.400,89.868 190.968,90.152 191.709 M270.600 195.225 C 268.806 195.946,268.800 196.014,268.800 214.374 L 268.800 232.800 272.400 232.800 L 276.000 232.800 276.000 226.800 C 276.000 219.458,275.779 219.455,282.719 226.865 L 288.400 232.930 292.717 232.665 L 297.034 232.400 290.517 225.272 C 282.679 216.699,282.733 218.142,290.000 211.355 C 297.089 204.734,297.068 204.800,292.179 204.800 C 288.510 204.800,288.135 205.024,282.800 210.400 C 275.682 217.573,276.000 217.817,276.000 205.200 C 276.000 193.323,275.881 193.102,270.600 195.225 M359.400 194.965 L 357.600 195.311 357.600 214.056 L 357.600 232.800 361.133 232.800 C 363.077 232.800,364.804 232.388,364.972 231.885 C 365.200 231.199,365.703 231.199,366.986 231.885 C 371.076 234.074,378.368 232.842,382.276 229.300 C 393.692 218.955,380.735 199.001,367.160 206.021 L 364.800 207.241 364.800 200.821 C 364.800 193.806,364.893 193.907,359.400 194.965 M163.200 214.000 L 163.200 232.800 166.800 232.800 L 170.400 232.800 170.417 219.400 L 170.434 206.000 176.603 217.834 C 181.710 227.631,182.930 229.451,183.691 228.410 C 184.197 227.719,187.083 222.393,190.105 216.576 L 195.600 206.000 195.819 219.400 L 196.039 232.800 199.619 232.800 L 203.200 232.800 203.200 214.000 L 203.200 195.200 198.445 195.200 L 193.689 195.200 188.315 205.330 L 182.942 215.459 177.865 205.330 L 172.788 195.200 167.994 195.200 L 163.200 195.200 163.200 214.000 M298.400 214.000 L 298.400 232.800 312.446 232.800 L 326.492 232.800 326.246 229.400 L 326.000 226.000 315.800 225.776 L 305.600 225.552 305.600 210.376 L 305.600 195.200 302.000 195.200 L 298.400 195.200 298.400 214.000 M214.024 206.625 C 205.335 211.546,204.165 222.964,211.672 229.556 C 221.213 237.933,236.000 231.335,236.000 218.702 C 236.000 207.950,223.659 201.168,214.024 206.625 M239.200 218.800 L 239.200 232.800 242.800 232.800 L 246.400 232.800 246.400 222.828 C 246.400 211.698,246.649 211.200,252.223 211.200 C 256.899 211.200,257.600 212.798,257.600 223.463 L 257.600 232.800 261.200 232.800 L 264.800 232.800 264.800 222.323 C 264.800 206.786,258.742 200.667,248.600 205.957 C 246.687 206.955,246.400 206.955,246.400 205.953 C 246.400 205.120,245.401 204.800,242.800 204.800 L 239.200 204.800 239.200 218.800 M333.260 206.063 C 329.197 207.551,329.265 207.432,330.795 210.390 C 331.773 212.282,332.451 212.781,333.454 212.346 C 340.546 209.271,346.400 210.532,346.400 215.134 C 346.400 217.381,346.334 217.416,343.400 216.728 C 337.037 215.235,329.221 218.481,328.779 222.800 C 327.984 230.580,333.826 234.696,342.480 232.451 C 344.636 231.892,346.400 231.742,346.400 232.117 C 346.400 232.493,348.020 232.800,350.000 232.800 L 353.600 232.800 353.600 222.360 C 353.600 210.718,352.831 208.084,348.826 206.014 C 345.869 204.484,337.497 204.511,333.260 206.063 M226.691 213.309 C 231.954 218.572,227.130 228.366,220.042 226.809 C 214.043 225.492,211.697 217.042,216.245 213.131 C 219.394 210.422,223.880 210.498,226.691 213.309 M377.012 213.230 C 383.318 219.536,377.043 229.294,368.567 226.364 L 365.200 225.200 364.959 219.601 C 364.603 211.331,371.479 207.697,377.012 213.230 M79.047 214.531 C 79.230 216.120,78.864 216.799,77.608 217.197 C 74.619 218.146,72.447 215.073,74.591 212.929 C 76.264 211.256,78.772 212.157,79.047 214.531 M345.300 221.600 C 347.055 221.600,346.686 226.191,344.853 227.172 C 340.943 229.264,334.760 227.277,335.367 224.123 C 335.724 222.269,339.227 220.690,341.900 221.179 C 343.165 221.411,344.695 221.600,345.300 221.600 M89.568 234.762 C 90.103 235.407,90.294 236.672,89.997 237.608 C 89.215 240.072,85.302 239.518,84.930 236.890 C 84.514 233.947,87.684 232.492,89.568 234.762 " stroke="none" fill="#000000" fill-rule="evenodd"></path></g></svg>